<svg width="47" height="36" xmlns="http://www.w3.org/2000/svg" xmlns:xlink="http://www.w3.org/1999/xlink" xml:space="preserve" overflow="hidden"><g transform="translate(-264 -237)"><path d="M27.8625 11.175 26.4 12.6375C29.4375 15.675 29.4375 20.625 26.4 23.6625L27.8625 25.125C31.6875 21.2625 31.725 15.0375 27.8625 11.175Z" transform="matrix(1.30556 0 0 1 264 237)"/><path d="M23.5125 20.775 24.975 22.2375C27.1875 20.0625 27.225 16.4625 25.05 14.25 25.0125 14.2125 24.975 14.175 24.975 14.175L23.5125 15.6375C24.9375 17.0625 24.9375 19.35 23.5125 20.775Z" transform="matrix(1.30556 0 0 1 264 237)"/><path d="M4.575 12.975 4.575 23.025 11.85 23.025 21.2625 30.75 21.2625 5.25 11.85 12.975Z" transform="matrix(1.30556 0 0 1 264 237)"/></g></svg>